<svg width="1743" height="724" xmlns="http://www.w3.org/2000/svg" xmlns:xlink="http://www.w3.org/1999/xlink" overflow="hidden"><defs><clipPath id="clip0"><rect x="232" y="1148" width="1743" height="724"/></clipPath></defs><g clip-path="url(#clip0)" transform="translate(-232 -1148)"><path d="M1487 1371C1487 1343.94 1508.94 1322 1536 1322 1563.06 1322 1585 1343.94 1585 1371 1585 1398.06 1563.06 1420 1536 1420 1508.94 1420 1487 1398.06 1487 1371Z" fill="#4472C4" fill-rule="evenodd"/><path d="M268.5 1195.5C310.932 1301.07 353.363 1406.64 526.313 1513.31 699.262 1619.97 1074.16 1835.86 1306.2 1835.5 1538.23 1835.13 1728.36 1673.13 1918.5 1511.12" stroke="#4472C4" stroke-width="73.3333" stroke-miterlimit="8" fill="none" fill-rule="evenodd"/><path d="M0 0C42.4316 105.406 84.8631 210.811 257.813 317.312 430.762 423.812 805.664 639.364 1037.7 639 1269.73 638.635 1459.86 476.879 1650 315.123" stroke="#4472C4" stroke-width="73.3333" stroke-miterlimit="8" fill="none" fill-rule="evenodd" transform="matrix(1 0 0 -1 269.5 1823.5)"/><path d="M269.302 1823.63 268.5 1195.5" stroke="#4472C4" stroke-width="73.3333" stroke-miterlimit="8" fill="none" fill-rule="evenodd"/><path d="M1939.95 1476 1975 1506.67 1933.46 1548 1901 1500" fill="#4472C4" fill-rule="evenodd"/><path d="M1759.5 1632.86C1696.81 1639.48 1634.11 1646.09 1582.78 1632.86 1531.45 1619.64 1491.47 1586.57 1451.5 1553.5" stroke="#4472C4" stroke-width="41.25" stroke-linecap="round" stroke-miterlimit="8" fill="none" fill-rule="evenodd"/></g></svg>