<svg width="1742" height="723" xmlns="http://www.w3.org/2000/svg" xmlns:xlink="http://www.w3.org/1999/xlink" overflow="hidden"><defs><clipPath id="clip0"><rect x="212" y="3182" width="1742" height="723"/></clipPath></defs><g clip-path="url(#clip0)" transform="translate(-212 -3182)"><path d="M1466 3404.5C1466 3377.16 1487.94 3355 1515 3355 1542.06 3355 1564 3377.16 1564 3404.5 1564 3431.84 1542.06 3454 1515 3454 1487.94 3454 1466 3431.84 1466 3404.5Z" fill="#4472C4" fill-rule="evenodd"/><path d="M248.5 3229.5C290.906 3334.91 333.312 3440.31 506.156 3546.81 679.001 3653.31 1053.68 3868.86 1285.57 3868.5 1517.46 3868.14 1707.48 3706.38 1897.5 3544.62" stroke="#4472C4" stroke-width="73.3333" stroke-miterlimit="8" fill="none" fill-rule="evenodd"/><path d="M0 0C42.4058 105.241 84.8117 210.482 257.656 316.815 430.501 423.148 805.176 638.364 1037.07 638 1268.96 637.636 1458.98 476.133 1649 314.63" stroke="#4472C4" stroke-width="73.3333" stroke-miterlimit="8" fill="none" fill-rule="evenodd" transform="matrix(1 0 0 -1 249.5 3856.5)"/><path d="M249.302 3856.52 248.5 3229.5" stroke="#4472C4" stroke-width="73.3333" stroke-miterlimit="8" fill="none" fill-rule="evenodd"/><path d="M1918.95 3510 1954 3540.24 1912.46 3581 1880 3533.67" fill="#4472C4" fill-rule="evenodd"/><path d="M0 0 264.688 3.4375" stroke="#4472C4" stroke-width="41.25" stroke-linecap="round" stroke-miterlimit="8" fill="none" fill-rule="evenodd" transform="matrix(-1 0 0 1 1760.19 3638.5)"/></g></svg>