<svg width="1763" height="1030" xmlns="http://www.w3.org/2000/svg" xmlns:xlink="http://www.w3.org/1999/xlink" overflow="hidden"><defs><clipPath id="clip0"><rect x="2812" y="1145" width="1763" height="1030"/></clipPath></defs><g clip-path="url(#clip0)" transform="translate(-2812 -1145)"><path d="M4063.45 1335.17C4054.61 1308.36 4068.24 1279.78 4093.9 1271.32 4119.55 1262.86 4147.51 1277.74 4156.35 1304.55 4165.18 1331.37 4151.55 1359.95 4125.9 1368.41 4100.24 1376.86 4072.28 1361.99 4063.45 1335.17Z" stroke="#616161" stroke-width="4.58333" stroke-miterlimit="8" fill="#616161" fill-rule="evenodd"/><path d="M2848.93 1543.59C2923.53 1634.41 2998.13 1725.23 3197.01 1776.29 3395.89 1827.34 3822.02 1922.9 4042.21 1849.92 4262.4 1776.95 4390.28 1557.69 4518.15 1338.44" stroke="#616161" stroke-width="73.3333" stroke-miterlimit="8" fill="none" fill-rule="evenodd"/><path d="M0 0C42.42 109.607 84.84 219.214 257.742 329.959 430.645 440.704 805.445 664.849 1037.41 664.47 1269.38 664.09 1459.47 495.887 1649.55 327.684" stroke="#616161" stroke-width="73.3333" stroke-miterlimit="8" fill="none" fill-rule="evenodd" transform="matrix(0.949741 -0.313037 -0.313037 -0.949741 3054.31 2162.6)"/><path d="M3053.89 2162.87 2848.89 1543.48" stroke="#616161" stroke-width="73.3333" stroke-miterlimit="8" fill="none" fill-rule="evenodd"/><path d="M4527.79 1297.34 4570.92 1316.43 4544.88 1369.9 4498.61 1333.02" stroke="#616161" stroke-width="4.58333" stroke-miterlimit="8" fill="#616161" fill-rule="evenodd"/><path d="M4406.69 1507.61C4349.25 1533.78 4291.82 1559.95 4238.72 1562.97 4185.63 1565.99 4136.87 1545.86 4088.12 1525.73" stroke="#616161" stroke-width="41.25" stroke-linecap="round" stroke-miterlimit="8" fill="none" fill-rule="evenodd"/></g></svg>