<svg width="1754" height="1081" xmlns="http://www.w3.org/2000/svg" xmlns:xlink="http://www.w3.org/1999/xlink" overflow="hidden"><defs><clipPath id="clip0"><rect x="2917" y="2504" width="1754" height="1081"/></clipPath></defs><g clip-path="url(#clip0)" transform="translate(-2917 -2504)"><path d="M4256.88 3128.72C4266.48 3102.33 4294.85 3088.43 4320.23 3097.66 4345.61 3106.9 4358.4 3135.79 4348.79 3162.18 4339.19 3188.57 4310.83 3202.48 4285.44 3193.24 4260.06 3184 4247.27 3155.12 4256.88 3128.72Z" stroke="#616161" stroke-width="4.58333" stroke-miterlimit="8" fill="#616161" fill-rule="evenodd"/><path d="M3173.67 2541.52C3176.24 2658.5 3178.8 2775.48 3303.59 2938.15 3428.38 3100.83 3704.31 3438.57 3922.41 3517.56 4140.52 3596.54 4376.38 3504.3 4612.24 3412.05" stroke="#616161" stroke-width="73.3333" stroke-miterlimit="8" fill="none" fill-rule="evenodd"/><path d="M0 0C42.42 109.05 84.84 218.101 257.742 328.283 430.645 438.466 805.445 661.472 1037.41 661.095 1269.38 660.717 1459.47 493.368 1649.55 326.019" stroke="#616161" stroke-width="73.3333" stroke-miterlimit="8" fill="none" fill-rule="evenodd" transform="matrix(0.939693 0.34202 0.34202 -0.939693 2952.96 3151.7)"/><path d="M2952.46 3151.64 3173.71 2541.4" stroke="#616161" stroke-width="73.3333" stroke-miterlimit="8" fill="none" fill-rule="evenodd"/><path d="M4645.18 3385.9 4667.29 3427.44 4613.82 3453.12 4600.23 3395.75" stroke="#616161" stroke-width="4.58333" stroke-miterlimit="8" fill="#616161" fill-rule="evenodd"/><path d="M4420.19 3475.32C4358.9 3460.29 4297.6 3445.26 4254.01 3414.84 4210.41 3384.41 4184.52 3338.58 4158.63 3292.76" stroke="#616161" stroke-width="41.25" stroke-linecap="round" stroke-miterlimit="8" fill="none" fill-rule="evenodd"/></g></svg>