<svg width="1747" height="747" xmlns="http://www.w3.org/2000/svg" xmlns:xlink="http://www.w3.org/1999/xlink" overflow="hidden"><defs><clipPath id="clip0"><rect x="212" y="2253" width="1747" height="747"/></clipPath></defs><g clip-path="url(#clip0)" transform="translate(-212 -2253)"><path d="M306 78.4516C243.713 84.9891 181.426 91.5266 130.426 78.4516 79.4265 65.3766 39.713 32.688 0 0" stroke="#616161" stroke-width="41.25" stroke-linecap="round" stroke-miterlimit="8" fill="none" fill-rule="evenodd" transform="matrix(1 0 0 -1 1444.5 2788.5)"/><path d="M1466.5 2483.5C1466.5 2455.33 1488.44 2432.5 1515.5 2432.5 1542.56 2432.5 1564.5 2455.33 1564.5 2483.5 1564.5 2511.67 1542.56 2534.5 1515.5 2534.5 1488.44 2534.5 1466.5 2511.67 1466.5 2483.5Z" stroke="#616161" stroke-width="4.58333" stroke-miterlimit="8" fill="#616161" fill-rule="evenodd"/><path d="M248.5 2302.5C290.906 2411.53 333.312 2520.57 506.156 2630.74 679.001 2740.9 1053.68 2963.88 1285.57 2963.5 1517.46 2963.12 1707.48 2795.8 1897.5 2628.47" stroke="#616161" stroke-width="73.3333" stroke-miterlimit="8" fill="none" fill-rule="evenodd"/><path d="M0 0C42.4058 109.035 84.8117 218.069 257.656 328.236 430.501 438.403 805.176 661.377 1037.07 661 1268.96 660.622 1458.98 493.297 1649 325.973" stroke="#616161" stroke-width="73.3333" stroke-miterlimit="8" fill="none" fill-rule="evenodd" transform="matrix(1 0 0 -1 249.5 2950.5)"/><path d="M249.302 2950.62 248.5 2301.5" stroke="#616161" stroke-width="73.3333" stroke-miterlimit="8" fill="none" fill-rule="evenodd"/><path d="M1919.45 2592.5 1954.5 2624.02 1912.96 2666.5 1880.5 2617.17" stroke="#616161" stroke-width="4.58333" stroke-miterlimit="8" fill="#616161" fill-rule="evenodd"/></g></svg>