<svg width="1742" height="723" xmlns="http://www.w3.org/2000/svg" xmlns:xlink="http://www.w3.org/1999/xlink" overflow="hidden"><defs><clipPath id="clip0"><rect x="212" y="2169" width="1742" height="723"/></clipPath></defs><g clip-path="url(#clip0)" transform="translate(-212 -2169)"><path d="M306 75.7148C243.713 82.0242 181.426 88.3337 130.426 75.7148 79.4265 63.0959 39.713 31.5477 0 0" stroke="#4472C4" stroke-width="41.25" stroke-linecap="round" stroke-miterlimit="8" fill="none" fill-rule="evenodd" transform="matrix(1 0 0 -1 1444.5 2686.5)"/><path d="M1466 2391.5C1466 2364.16 1487.94 2342 1515 2342 1542.06 2342 1564 2364.16 1564 2391.5 1564 2418.84 1542.06 2441 1515 2441 1487.94 2441 1466 2418.84 1466 2391.5Z" fill="#4472C4" fill-rule="evenodd"/><path d="M248.5 2216.5C290.906 2321.91 333.312 2427.31 506.156 2533.81 679.001 2640.31 1053.68 2855.86 1285.57 2855.5 1517.46 2855.14 1707.48 2693.38 1897.5 2531.62" stroke="#4472C4" stroke-width="73.3333" stroke-miterlimit="8" fill="none" fill-rule="evenodd"/><path d="M0 0C42.4058 105.241 84.8117 210.482 257.656 316.815 430.501 423.148 805.176 638.364 1037.07 638 1268.96 637.636 1458.98 476.133 1649 314.63" stroke="#4472C4" stroke-width="73.3333" stroke-miterlimit="8" fill="none" fill-rule="evenodd" transform="matrix(1 0 0 -1 249.5 2843.5)"/><path d="M249.302 2843.52 248.5 2216.5" stroke="#4472C4" stroke-width="73.3333" stroke-miterlimit="8" fill="none" fill-rule="evenodd"/><path d="M1918.95 2497 1954 2527.24 1912.46 2568 1880 2520.67" fill="#4472C4" fill-rule="evenodd"/></g></svg>