<svg width="1724" height="723" xmlns="http://www.w3.org/2000/svg" xmlns:xlink="http://www.w3.org/1999/xlink" overflow="hidden"><defs><clipPath id="clip0"><rect x="212" y="4254" width="1724" height="723"/></clipPath></defs><g clip-path="url(#clip0)" transform="translate(-212 -4254)"><path d="M305 93.0474C242.916 100.801 180.833 108.555 130 93.0474 79.1669 77.5398 39.5832 38.7696 0 0" stroke="#616161" stroke-width="55" stroke-linecap="round" stroke-miterlimit="8" fill="none" fill-rule="evenodd" transform="matrix(-1 0 0 1 762.5 4670.5)"/><path d="M0 49C-6.23835e-15 21.938 21.938-6.23835e-15 49-1.24767e-14 76.0619-2.49534e-14 98 21.938 98 49 98 76.0619 76.0619 98 49 98 21.938 98-3.11918e-14 76.0619 0 49Z" stroke="#616161" stroke-width="4.58333" stroke-linecap="round" stroke-miterlimit="8" fill="#616161" fill-rule="evenodd" transform="matrix(-1 0 0 1 680.5 4428.5)"/><path d="M0 0C42.4316 105.241 84.8631 210.482 257.813 316.815 430.762 423.148 805.664 638.364 1037.7 638 1269.73 637.636 1459.86 476.133 1650 314.63" stroke="#616161" stroke-width="73.3333" stroke-linecap="round" stroke-miterlimit="8" fill="none" fill-rule="evenodd" transform="matrix(-1 0 0 1 1899.5 4302.5)"/><path d="M1897.5 4929.5C1855.09 4824.09 1812.69 4718.69 1639.84 4612.19 1467 4505.69 1092.32 4290.14 860.434 4290.5 628.543 4290.87 438.522 4452.62 248.5 4614.38" stroke="#616161" stroke-width="73.3333" stroke-linecap="round" stroke-miterlimit="8" fill="none" fill-rule="evenodd"/><path d="M0 0 0.802264 627.024" stroke="#616161" stroke-width="73.3333" stroke-linecap="round" stroke-miterlimit="8" fill="none" fill-rule="evenodd" transform="matrix(1 0 0 -1 1898.5 4929.52)"/><path d="M759.768 4671.08 317.5 4666.5" stroke="#616161" stroke-width="55" stroke-linecap="round" stroke-miterlimit="8" fill="none" fill-rule="evenodd"/></g></svg>