<svg width="1748" height="746" xmlns="http://www.w3.org/2000/svg" xmlns:xlink="http://www.w3.org/1999/xlink" overflow="hidden"><defs><clipPath id="clip0"><rect x="395" y="150" width="1748" height="746"/></clipPath></defs><g clip-path="url(#clip0)" transform="translate(-395 -150)"><path d="M1650.5 379.5C1650.5 351.334 1672.44 328.5 1699.5 328.5 1726.56 328.5 1748.5 351.334 1748.5 379.5 1748.5 407.666 1726.56 430.5 1699.5 430.5 1672.44 430.5 1650.5 407.666 1650.5 379.5Z" stroke="#616161" stroke-width="4.58333" stroke-miterlimit="8" fill="#616161" fill-rule="evenodd"/><path d="M431.5 198.5C473.931 307.535 516.363 416.569 689.312 526.736 862.262 636.903 1237.16 859.877 1469.2 859.5 1701.23 859.122 1891.36 691.797 2081.5 524.472" stroke="#616161" stroke-width="73.3333" stroke-miterlimit="8" fill="none" fill-rule="evenodd"/><path d="M0 0C42.4058 109.035 84.8117 218.069 257.656 328.236 430.501 438.403 805.176 661.376 1037.07 660.999 1268.96 660.622 1458.98 493.297 1649 325.972" stroke="#616161" stroke-width="73.3333" stroke-miterlimit="8" fill="none" fill-rule="evenodd" transform="matrix(1 0 0 -1 433.5 847.5)"/><path d="M432.302 847.617 431.5 198.5" stroke="#616161" stroke-width="73.3333" stroke-miterlimit="8" fill="none" fill-rule="evenodd"/><path d="M2103.45 488.5 2138.5 520.018 2096.96 562.5 2064.5 513.167" stroke="#616161" stroke-width="4.58333" stroke-miterlimit="8" fill="#616161" fill-rule="evenodd"/></g></svg>