<svg width="1748" height="750" xmlns="http://www.w3.org/2000/svg" xmlns:xlink="http://www.w3.org/1999/xlink" overflow="hidden"><defs><clipPath id="clip0"><rect x="232" y="1191" width="1748" height="750"/></clipPath></defs><g clip-path="url(#clip0)" transform="translate(-232 -1191)"><path d="M1487.5 1422.5C1487.5 1394.33 1509.44 1371.5 1536.5 1371.5 1563.56 1371.5 1585.5 1394.33 1585.5 1422.5 1585.5 1450.67 1563.56 1473.5 1536.5 1473.5 1509.44 1473.5 1487.5 1450.67 1487.5 1422.5Z" stroke="#616161" stroke-width="4.58333" stroke-miterlimit="8" fill="#616161" fill-rule="evenodd"/><path d="M268.5 1239.5C310.932 1349.19 353.363 1458.89 526.313 1569.72 699.262 1680.56 1074.16 1904.88 1306.2 1904.5 1538.23 1904.12 1728.36 1735.78 1918.5 1567.45" stroke="#616161" stroke-width="73.3333" stroke-miterlimit="8" fill="none" fill-rule="evenodd"/><path d="M0 0C42.4316 109.694 84.8631 219.389 257.813 330.222 430.762 441.056 805.664 665.379 1037.7 664.999 1269.73 664.62 1459.86 496.282 1650 327.945" stroke="#616161" stroke-width="73.3333" stroke-miterlimit="8" fill="none" fill-rule="evenodd" transform="matrix(1 0 0 -1 269.5 1892.5)"/><path d="M269.302 1891.93 268.5 1239.5" stroke="#616161" stroke-width="73.3333" stroke-miterlimit="8" fill="none" fill-rule="evenodd"/><path d="M1940.45 1531.5 1975.5 1563.02 1933.96 1605.5 1901.5 1556.17" stroke="#616161" stroke-width="4.58333" stroke-miterlimit="8" fill="#616161" fill-rule="evenodd"/><path d="M1759.5 1693.51C1696.81 1700.43 1634.11 1707.35 1582.78 1693.51 1531.45 1679.68 1491.47 1645.09 1451.5 1610.5" stroke="#616161" stroke-width="41.25" stroke-linecap="round" stroke-miterlimit="8" fill="none" fill-rule="evenodd"/></g></svg>