<svg width="1743" height="723" xmlns="http://www.w3.org/2000/svg" xmlns:xlink="http://www.w3.org/1999/xlink" overflow="hidden"><defs><clipPath id="clip0"><rect x="395" y="143" width="1743" height="723"/></clipPath></defs><g clip-path="url(#clip0)" transform="translate(-395 -143)"><path d="M1650 366C1650 338.938 1671.94 317 1699 317 1726.06 317 1748 338.938 1748 366 1748 393.062 1726.06 415 1699 415 1671.94 415 1650 393.062 1650 366Z" fill="#4472C4" fill-rule="evenodd"/><path d="M431.5 191.5C473.931 296.741 516.363 401.982 689.312 508.315 862.262 614.648 1237.16 829.864 1469.2 829.5 1701.23 829.135 1891.36 667.633 2081.5 506.13" stroke="#4472C4" stroke-width="73.3333" stroke-miterlimit="8" fill="none" fill-rule="evenodd"/><path d="M0 0C42.4058 105.241 84.8117 210.482 257.656 316.815 430.501 423.148 805.176 638.364 1037.07 638 1268.96 637.636 1458.98 476.133 1649 314.63" stroke="#4472C4" stroke-width="73.3333" stroke-miterlimit="8" fill="none" fill-rule="evenodd" transform="matrix(1 0 0 -1 433.5 817.5)"/><path d="M432.302 817.524 431.5 190.5" stroke="#4472C4" stroke-width="73.3333" stroke-miterlimit="8" fill="none" fill-rule="evenodd"/><path d="M2102.95 471 2138 501.241 2096.46 542 2064 494.667" fill="#4472C4" fill-rule="evenodd"/></g></svg>