<svg width="1724" height="723" xmlns="http://www.w3.org/2000/svg" xmlns:xlink="http://www.w3.org/1999/xlink" overflow="hidden"><defs><clipPath id="clip0"><rect x="212" y="2169" width="1724" height="723"/></clipPath></defs><g clip-path="url(#clip0)" transform="translate(-212 -2169)"><path d="M396.5 2610.79C458.787 2604.48 521.074 2598.17 572.074 2610.79 623.074 2623.4 662.787 2654.95 702.5 2686.5" stroke="#616161" stroke-width="55" stroke-linecap="round" stroke-miterlimit="8" fill="none" fill-rule="evenodd"/><path d="M0 49.5C-6.23835e-15 22.1619 21.938-6.30201e-15 49-1.2604e-14 76.0619-2.5208e-14 98 22.1619 98 49.5 98 76.8381 76.0619 99 49 99 21.938 99-3.11918e-14 76.8381 0 49.5Z" stroke="#616161" stroke-width="4.58333" stroke-linecap="round" stroke-miterlimit="8" fill="#616161" fill-rule="evenodd" transform="matrix(-1 0 0 1 680.5 2342.5)"/><path d="M0 0C42.4316 105.406 84.8631 210.811 257.813 317.312 430.762 423.812 805.664 639.364 1037.7 639 1269.73 638.635 1459.86 476.879 1650 315.123" stroke="#616161" stroke-width="73.3333" stroke-linecap="round" stroke-miterlimit="8" fill="none" fill-rule="evenodd" transform="matrix(-1 0 0 1 1899.5 2216.5)"/><path d="M1897.5 2843.5C1855.09 2738.26 1812.69 2633.02 1639.84 2526.69 1467 2420.35 1092.32 2205.14 860.434 2205.5 628.543 2205.86 438.522 2367.37 248.5 2528.87" stroke="#616161" stroke-width="73.3333" stroke-linecap="round" stroke-miterlimit="8" fill="none" fill-rule="evenodd"/><path d="M0 0 0.802264 627.024" stroke="#616161" stroke-width="73.3333" stroke-linecap="round" stroke-miterlimit="8" fill="none" fill-rule="evenodd" transform="matrix(1 0 0 -1 1898.5 2843.52)"/></g></svg>