<svg width="1747" height="750" xmlns="http://www.w3.org/2000/svg" xmlns:xlink="http://www.w3.org/1999/xlink" overflow="hidden"><defs><clipPath id="clip0"><rect x="6679" y="1387" width="1747" height="750"/></clipPath></defs><g clip-path="url(#clip0)" transform="translate(-6679 -1387)"><path d="M0 51C-6.17472e-15 22.8335 21.7143-6.49299e-15 48.5001-1.2986e-14 75.286-2.59719e-14 97.0003 22.8335 97.0003 51 97.0003 79.1666 75.286 102 48.5001 102 21.7143 102-3.08736e-14 79.1666 0 51Z" stroke="#616161" stroke-width="4.58333" stroke-miterlimit="8" fill="#616161" fill-rule="evenodd" transform="matrix(-1 0 0 1 7170.5 1567.5)"/><path d="M0 0C42.4058 109.695 84.8117 219.389 257.656 330.223 430.501 441.056 805.176 665.379 1037.07 665 1268.96 664.62 1458.98 496.283 1649 327.945" stroke="#616161" stroke-width="73.3333" stroke-miterlimit="8" fill="none" fill-rule="evenodd" transform="matrix(-1 0 0 1 8389.5 1435.5)"/><path d="M8388.5 2088.5C8346.07 1978.81 8303.64 1869.11 8130.69 1758.28 7957.74 1647.44 7582.84 1423.12 7350.8 1423.5 7118.77 1423.88 6928.64 1592.22 6738.5 1760.56" stroke="#616161" stroke-width="73.3333" stroke-miterlimit="8" fill="none" fill-rule="evenodd"/><path d="M0 0 0.801903 652.431" stroke="#616161" stroke-width="73.3333" stroke-miterlimit="8" fill="none" fill-rule="evenodd" transform="matrix(1 0 0 -1 8388.5 2087.93)"/><path d="M38.421 0 72.9999 31.5186 32.0174 74.0003 0 24.6666" stroke="#616161" stroke-width="4.58333" stroke-miterlimit="8" fill="#616161" fill-rule="evenodd" transform="matrix(-1 0 0 1 6756.5 1727.5)"/><path d="M309 83.0128C246.102 89.9305 183.205 96.848 131.705 83.0128 80.2052 69.1777 40.1023 34.5885 0 0" stroke="#616161" stroke-width="41.25" stroke-linecap="round" stroke-miterlimit="8" fill="none" fill-rule="evenodd" transform="matrix(-1 0 0 1 7207.5 1806.5)"/></g></svg>