<svg width="1747" height="747" xmlns="http://www.w3.org/2000/svg" xmlns:xlink="http://www.w3.org/1999/xlink" overflow="hidden"><defs><clipPath id="clip0"><rect x="212" y="3305" width="1747" height="747"/></clipPath></defs><g clip-path="url(#clip0)" transform="translate(-212 -3305)"><path d="M1466.5 3535.5C1466.5 3507.33 1488.44 3484.5 1515.5 3484.5 1542.56 3484.5 1564.5 3507.33 1564.5 3535.5 1564.5 3563.67 1542.56 3586.5 1515.5 3586.5 1488.44 3586.5 1466.5 3563.67 1466.5 3535.5Z" stroke="#616161" stroke-width="4.58333" stroke-miterlimit="8" fill="#616161" fill-rule="evenodd"/><path d="M248.5 3353.5C290.906 3462.7 333.312 3571.9 506.156 3682.23 679.001 3792.57 1053.68 4015.88 1285.57 4015.5 1517.46 4015.12 1707.48 3847.54 1897.5 3679.97" stroke="#616161" stroke-width="73.3333" stroke-miterlimit="8" fill="none" fill-rule="evenodd"/><path d="M0 0C42.4058 109.035 84.8117 218.069 257.656 328.236 430.501 438.403 805.176 661.377 1037.07 661 1268.96 660.622 1458.98 493.297 1649 325.973" stroke="#616161" stroke-width="73.3333" stroke-miterlimit="8" fill="none" fill-rule="evenodd" transform="matrix(1 0 0 -1 249.5 4002.5)"/><path d="M249.302 4002.62 248.5 3353.5" stroke="#616161" stroke-width="73.3333" stroke-miterlimit="8" fill="none" fill-rule="evenodd"/><path d="M1919.45 3644.5 1954.5 3676.02 1912.96 3718.5 1880.5 3669.17" stroke="#616161" stroke-width="4.58333" stroke-miterlimit="8" fill="#616161" fill-rule="evenodd"/><path d="M0 0 264.688 3.55876" stroke="#616161" stroke-width="41.25" stroke-linecap="round" stroke-miterlimit="8" fill="none" fill-rule="evenodd" transform="matrix(-1 0 0 1 1760.19 3777.5)"/></g></svg>