<svg width="1683" height="654" xmlns="http://www.w3.org/2000/svg" xmlns:xlink="http://www.w3.org/1999/xlink" overflow="hidden"><defs><clipPath id="clip0"><rect x="486" y="164" width="1683" height="654"/></clipPath></defs><g clip-path="url(#clip0)" transform="translate(-486 -164)"><path d="M1818 353.5C1818 338.312 1829.42 326 1843.5 326 1857.58 326 1869 338.312 1869 353.5 1869 368.688 1857.58 381 1843.5 381 1829.42 381 1818 368.688 1818 353.5Z" fill="#4472C4" fill-rule="evenodd"/><path d="M496.5 185.5C538.983 288.102 581.466 390.703 754.625 494.37 927.784 598.036 1303.14 807.855 1535.45 807.5 1767.77 807.145 1958.13 649.692 2148.5 492.24" stroke="#4472C4" stroke-width="20.625" stroke-miterlimit="8" fill="none" fill-rule="evenodd"/><path d="M0 0C42.483 102.601 84.966 205.203 258.125 308.87 431.284 412.536 806.641 622.354 1038.95 621.999 1271.27 621.645 1461.63 464.192 1652 306.74" stroke="#4472C4" stroke-width="20.625" stroke-miterlimit="8" fill="none" fill-rule="evenodd" transform="matrix(1 0 0 -1 497.5 796.5)"/><path d="M497.792 796.013 496.5 185.5" stroke="#4472C4" stroke-width="20.625" stroke-miterlimit="8" fill="none" fill-rule="evenodd"/><path d="M2099.5 448.5 2158.39 494.866" stroke="#4472C4" stroke-width="20.625" stroke-miterlimit="8" fill="none" fill-rule="evenodd"/></g></svg>