<svg width="1735" height="729" xmlns="http://www.w3.org/2000/svg" xmlns:xlink="http://www.w3.org/1999/xlink" overflow="hidden"><defs><clipPath id="clip0"><rect x="213" y="6341" width="1735" height="729"/></clipPath></defs><g clip-path="url(#clip0)" transform="translate(-213 -6341)"><path d="M217 32.8403C172.829 35.5769 128.658 38.3136 92.4918 32.8403 56.3253 27.367 28.1625 13.6834 0 0" stroke="#808080" stroke-width="55" stroke-linecap="round" stroke-miterlimit="8" fill="none" fill-rule="evenodd" transform="matrix(1 0 0 -1 1544.5 6814.5)"/><path d="M1476.5 6566C1476.5 6538.66 1498.44 6516.5 1525.5 6516.5 1552.56 6516.5 1574.5 6538.66 1574.5 6566 1574.5 6593.34 1552.56 6615.5 1525.5 6615.5 1498.44 6615.5 1476.5 6593.34 1476.5 6566Z" stroke="#808080" stroke-width="4.58333" stroke-linecap="round" stroke-miterlimit="8" fill="#808080" fill-rule="evenodd"/><path d="M249.5 6388.5C292.189 6494.9 334.878 6601.29 508.875 6708.79 682.873 6816.29 1060.05 7033.87 1293.48 7033.5 1526.92 7033.13 1718.21 6869.86 1909.5 6706.58" stroke="#808080" stroke-width="73.3333" stroke-linecap="round" stroke-miterlimit="8" fill="none" fill-rule="evenodd"/><path d="M0 0C42.6887 106.23 85.3774 212.461 259.375 319.794 433.373 427.128 810.547 644.367 1043.98 643.999 1277.42 643.632 1468.71 480.61 1660 317.589" stroke="#808080" stroke-width="73.3333" stroke-linecap="round" stroke-miterlimit="8" fill="none" fill-rule="evenodd" transform="matrix(1 0 0 -1 251.5 7021.5)"/><path d="M250.307 7021.05 249.5 6388.5" stroke="#808080" stroke-width="73.3333" stroke-linecap="round" stroke-miterlimit="8" fill="none" fill-rule="evenodd"/></g></svg>