<svg width="1724" height="731" xmlns="http://www.w3.org/2000/svg" xmlns:xlink="http://www.w3.org/1999/xlink" overflow="hidden"><defs><clipPath id="clip0"><rect x="212" y="3182" width="1724" height="731"/></clipPath></defs><g clip-path="url(#clip0)" transform="translate(-212 -3182)"><path d="M0 49.5C-6.23835e-15 22.1619 21.938-6.30201e-15 49-1.2604e-14 76.0619-2.5208e-14 98 22.1619 98 49.5 98 76.8381 76.0619 99 49 99 21.938 99-3.11918e-14 76.8381 0 49.5Z" stroke="#616161" stroke-width="4.58333" stroke-linecap="round" stroke-miterlimit="8" fill="#616161" fill-rule="evenodd" transform="matrix(-1 0 0 1 680.5 3357.5)"/><path d="M0 0C42.4316 106.725 84.8631 213.451 257.813 321.284 430.762 429.117 805.664 647.369 1037.7 647 1269.73 646.63 1459.86 482.849 1650 319.068" stroke="#616161" stroke-width="73.3333" stroke-linecap="round" stroke-miterlimit="8" fill="none" fill-rule="evenodd" transform="matrix(-1 0 0 1 1899.5 3229.5)"/><path d="M1897.5 3864.5C1855.09 3757.94 1812.69 3651.38 1639.84 3543.71 1467 3436.05 1092.32 3218.13 860.434 3218.5 628.543 3218.87 438.522 3382.4 248.5 3545.92" stroke="#616161" stroke-width="73.3333" stroke-linecap="round" stroke-miterlimit="8" fill="none" fill-rule="evenodd"/><path d="M0 0 0.802264 634.756" stroke="#616161" stroke-width="73.3333" stroke-linecap="round" stroke-miterlimit="8" fill="none" fill-rule="evenodd" transform="matrix(1 0 0 -1 1898.5 3864.26)"/><path d="M386.5 3643.5 700.657 3654.43" stroke="#616161" stroke-width="55" stroke-linecap="round" stroke-miterlimit="8" fill="none" fill-rule="evenodd"/></g></svg>