<svg width="1725" height="724" xmlns="http://www.w3.org/2000/svg" xmlns:xlink="http://www.w3.org/1999/xlink" overflow="hidden"><defs><clipPath id="clip0"><rect x="232" y="1148" width="1725" height="724"/></clipPath></defs><g clip-path="url(#clip0)" transform="translate(-232 -1148)"><path d="M0 49C-6.17469e-15 21.938 21.7142-6.23835e-15 48.5-1.24767e-14 75.2858-2.49534e-14 96.9999 21.938 96.9999 49 96.9999 76.0619 75.2858 98 48.5 98 21.7142 98-3.08735e-14 76.0619 0 49Z" stroke="#616161" stroke-width="4.58333" stroke-linecap="round" stroke-miterlimit="8" fill="#616161" fill-rule="evenodd" transform="matrix(-1 0 0 1 700.5 1322.5)"/><path d="M0 0C42.4316 105.571 84.8631 211.141 257.813 317.808 430.762 424.475 805.664 640.365 1037.7 640 1269.73 639.634 1459.86 477.625 1650 315.616" stroke="#616161" stroke-width="73.3333" stroke-linecap="round" stroke-miterlimit="8" fill="none" fill-rule="evenodd" transform="matrix(-1 0 0 1 1919.5 1195.5)"/><path d="M1918.5 1823.5C1876.07 1718.09 1833.64 1612.69 1660.69 1506.19 1487.74 1399.69 1112.84 1184.14 880.805 1184.5 648.774 1184.87 458.637 1346.62 268.5 1508.38" stroke="#616161" stroke-width="73.3333" stroke-linecap="round" stroke-miterlimit="8" fill="none" fill-rule="evenodd"/><path d="M0 0 0.802264 628.128" stroke="#616161" stroke-width="73.3333" stroke-linecap="round" stroke-miterlimit="8" fill="none" fill-rule="evenodd" transform="matrix(1 0 0 -1 1919.5 1823.63)"/><path d="M309 79.3638C246.102 85.9773 183.204 92.5908 131.705 79.3638 80.2051 66.1368 40.1023 33.0681 0 0" stroke="#616161" stroke-width="55" stroke-linecap="round" stroke-miterlimit="8" fill="none" fill-rule="evenodd" transform="matrix(-1 0 0 1 737.5 1553.5)"/></g></svg>