<svg width="1725" height="723" xmlns="http://www.w3.org/2000/svg" xmlns:xlink="http://www.w3.org/1999/xlink" overflow="hidden"><defs><clipPath id="clip0"><rect x="395" y="143" width="1725" height="723"/></clipPath></defs><g clip-path="url(#clip0)" transform="translate(-395 -143)"><path d="M0 49C-6.23835e-15 21.938 21.938-6.23835e-15 49-1.24767e-14 76.0619-2.49534e-14 98 21.938 98 49 98 76.0619 76.0619 98 49 98 21.938 98-3.11918e-14 76.0619 0 49Z" stroke="#616161" stroke-width="4.58333" stroke-linecap="round" stroke-miterlimit="8" fill="#616161" fill-rule="evenodd" transform="matrix(-1 0 0 1 864.5 317.5)"/><path d="M0 0C42.4316 105.241 84.8631 210.482 257.813 316.815 430.762 423.148 805.664 638.364 1037.7 638 1269.73 637.636 1459.86 476.133 1650 314.63" stroke="#616161" stroke-width="73.3333" stroke-linecap="round" stroke-miterlimit="8" fill="none" fill-rule="evenodd" transform="matrix(-1 0 0 1 2083.5 191.5)"/><path d="M2081.5 817.5C2039.07 712.259 1996.64 607.018 1823.69 500.685 1650.74 394.352 1275.84 179.136 1043.8 179.5 811.774 179.864 621.637 341.367 431.5 502.87" stroke="#616161" stroke-width="73.3333" stroke-linecap="round" stroke-miterlimit="8" fill="none" fill-rule="evenodd"/><path d="M0 0 0.802264 627.024" stroke="#616161" stroke-width="73.3333" stroke-linecap="round" stroke-miterlimit="8" fill="none" fill-rule="evenodd" transform="matrix(1 0 0 -1 2082.5 817.524)"/></g></svg>