<svg width="1724" height="731" xmlns="http://www.w3.org/2000/svg" xmlns:xlink="http://www.w3.org/1999/xlink" overflow="hidden"><defs><clipPath id="clip0"><rect x="212" y="3182" width="1724" height="731"/></clipPath></defs><g clip-path="url(#clip0)" transform="translate(-212 -3182)"><path d="M1467.5 3407C1467.5 3379.66 1489.21 3357.5 1516 3357.5 1542.79 3357.5 1564.5 3379.66 1564.5 3407 1564.5 3434.34 1542.79 3456.5 1516 3456.5 1489.21 3456.5 1467.5 3434.34 1467.5 3407Z" stroke="#616161" stroke-width="4.58333" stroke-linecap="round" stroke-miterlimit="8" fill="#616161" fill-rule="evenodd"/><path d="M248.5 3229.5C290.906 3336.23 333.312 3442.95 506.156 3550.78 679.001 3658.62 1053.68 3876.87 1285.57 3876.5 1517.46 3876.13 1707.48 3712.35 1897.5 3548.57" stroke="#616161" stroke-width="73.3333" stroke-linecap="round" stroke-miterlimit="8" fill="none" fill-rule="evenodd"/><path d="M0 0C42.4316 106.56 84.8631 213.121 257.813 320.787 430.762 428.454 805.664 646.368 1037.7 646 1269.73 645.631 1459.86 482.103 1650 318.575" stroke="#616161" stroke-width="73.3333" stroke-linecap="round" stroke-miterlimit="8" fill="none" fill-rule="evenodd" transform="matrix(1 0 0 -1 249.5 3864.5)"/><path d="M249.302 3864.26 248.5 3229.5" stroke="#616161" stroke-width="73.3333" stroke-linecap="round" stroke-miterlimit="8" fill="none" fill-rule="evenodd"/><path d="M0 0 314.158 10.9278" stroke="#616161" stroke-width="55" stroke-linecap="round" stroke-miterlimit="8" fill="none" fill-rule="evenodd" transform="matrix(-1 0 0 1 1760.66 3643.5)"/></g></svg>